<?xml version="1.0" encoding="UTF-8" standalone="no"?>
<svg
   xmlns:dc="http://purl.org/dc/elements/1.1/"
   xmlns:cc="http://creativecommons.org/ns#"
   xmlns:rdf="http://www.w3.org/1999/02/22-rdf-syntax-ns#"
   xmlns:svg="http://www.w3.org/2000/svg"
   xmlns="http://www.w3.org/2000/svg"
   xmlns:sodipodi="http://sodipodi.sourceforge.net/DTD/sodipodi-0.dtd"
   xmlns:inkscape="http://www.inkscape.org/namespaces/inkscape"
   width="330"
   height="114"
   viewBox="0 0 330 114"
   fill="none"
   version="1.1"
   id="svg122"
   sodipodi:docname="logo.svg"
   inkscape:version="1.0.1 (c497b03c, 2020-09-10)">
  <metadata
     id="metadata126">
    <rdf:RDF>
      <cc:Work
         rdf:about="">
        <dc:format>image/svg+xml</dc:format>
        <dc:type
           rdf:resource="http://purl.org/dc/dcmitype/StillImage" />
      </cc:Work>
    </rdf:RDF>
  </metadata>
  <sodipodi:namedview
     pagecolor="#ffffff"
     bordercolor="#666666"
     borderopacity="1"
     objecttolerance="10"
     gridtolerance="10"
     guidetolerance="10"
     inkscape:pageopacity="0"
     inkscape:pageshadow="2"
     inkscape:window-width="1440"
     inkscape:window-height="691"
     id="namedview124"
     showgrid="false"
     inkscape:zoom="3.8939394"
     inkscape:cx="165"
     inkscape:cy="49.754864"
     inkscape:window-x="0"
     inkscape:window-y="23"
     inkscape:window-maximized="0"
     inkscape:current-layer="svg122" />
  <g
     clip-path="url(#clip0)"
     id="g111">
    <path
       fill-rule="evenodd"
       clip-rule="evenodd"
       d="M7.63837 5.14288L12.7803 3.7156C12.7803 3.7156 10.4947 2.00198 14.495 2.57466C18.4931 3.14513 21.636 2.861 22.2068 2.57466C22.7776 2.28832 22.2068 1.14738 23.9215 1.14738C25.6362 1.14738 25.0632 2.00419 26.7779 2.00419C28.4926 2.00419 29.6343 0.863244 30.4916 0.576907C31.349 0.29057 31.6333 -0.564036 32.7772 0.576907C33.9189 1.71785 34.2054 2.57466 35.9201 2.57466C37.6348 2.57466 38.2056 4.85875 38.2056 5.99969C38.2056 7.14063 40.4912 8.28378 40.7777 9.42472C41.0642 10.5657 40.4912 12.2793 43.0633 11.7088C45.6331 11.1383 47.9187 11.7088 47.9187 12.2793C47.9187 12.8498 48.776 16.5611 48.4895 17.7021C48.203 18.843 47.0613 20.843 46.204 21.1271C45.3466 21.4134 43.3476 20.8408 43.061 21.6976C42.7745 22.5544 42.7745 25.4089 43.061 26.2657C43.3476 27.1226 43.6319 28.5498 45.3466 29.1203C47.0613 29.6908 47.0613 30.2612 47.9165 31.1181C48.7738 31.9749 48.7738 32.5453 50.202 32.5453C51.6302 32.5453 53.9157 32.259 54.2001 33.1158C54.4866 33.9726 55.6283 33.9726 57.343 34.8294C59.0577 35.6862 58.4846 38.8249 59.9128 39.3976C61.341 39.9681 63.0557 38.8271 63.6266 39.1113C64.1974 39.3976 65.3413 42.2522 67.0538 42.8226C68.7685 43.3931 70.7675 44.2499 70.7675 44.2499C70.7675 44.2499 71.0541 47.6749 71.0541 48.2454C71.0541 48.8159 68.1977 49.3864 68.1977 50.8136C68.1977 52.2409 68.1977 55.0955 69.3393 55.9523C70.481 56.8091 71.0541 56.8091 72.48 57.0932C73.9082 57.3796 75.6229 59.6615 75.6229 59.6615C75.6229 59.6615 74.4813 61.9455 74.1947 63.657C73.9082 65.3706 72.48 66.2252 72.48 66.7978C72.48 67.3705 74.7656 67.9388 75.0499 69.0819C75.3364 70.2229 76.1916 71.6502 76.4781 72.7933C76.7646 73.9343 72.7644 77.3615 72.7644 77.3615L69.0506 74.7933C69.0506 74.7933 66.4807 75.6501 64.4795 76.5069C62.4805 77.3637 59.6241 77.3637 58.7668 78.2205C57.9094 79.0773 55.6238 81.3614 53.3405 81.0751C51.055 80.7887 48.7694 82.216 46.4861 81.3614C44.2005 80.5046 42.2015 77.65 42.2015 77.65C42.2015 77.65 39.3451 76.7932 38.4877 76.2227C37.6304 75.6523 36.773 74.225 35.3448 72.7977C33.9167 71.3704 30.2029 71.3704 29.6321 71.3704C29.0612 71.3704 27.0622 69.6568 26.4914 69.3727C25.9205 69.0863 18.4931 69.0863 18.4931 69.0863C18.4931 69.0863 18.4931 69.9432 16.7784 70.5136C15.0636 71.0841 13.0646 69.6568 11.9229 69.3727C10.7813 69.0863 9.92391 69.3727 9.35308 69.9432C8.78224 70.5136 7.06753 73.3682 5.35502 74.225C3.64251 75.0818 1.35697 75.0818 1.35697 74.5113C1.35697 73.9409 2.49864 72.7977 2.78516 71.0863C3.07168 69.3727 1.64349 69.3727 0.49961 66.5181C-0.642062 63.6636 0.49961 62.8068 1.07045 61.9499C1.64128 61.0931 1.07045 60.2363 0.783926 57.9544C0.497406 55.6704 -0.644266 53.9589 0.497406 52.2453C1.63908 50.5317 2.49643 48.534 3.35379 47.1067C4.21115 45.6794 2.78295 45.9657 4.21115 44.2521C5.63934 42.5385 8.2092 41.3976 8.49572 40.5407C8.78224 39.6839 7.06753 38.2567 7.06753 37.3999C7.06753 36.543 8.2092 34.8316 8.78224 34.5453C9.35308 34.259 10.497 34.259 11.6386 33.6885C12.7803 33.118 15.0658 33.118 15.3524 31.1203C15.6389 29.1225 15.9232 28.552 15.9232 27.9794C15.9232 27.4089 14.7815 27.1226 13.6377 25.1248C12.496 23.1271 13.0668 20.843 13.0668 19.9862C13.0668 19.1293 10.7813 17.9884 10.7813 16.8453C10.7813 15.7043 9.92391 14.5612 9.92391 13.7044C9.92391 12.8476 9.63739 11.1361 9.63739 9.99299C9.63739 8.85205 7.92268 8.56571 7.35184 7.7089C6.78101 6.8543 7.63837 5.14288 7.63837 5.14288Z"
       fill="#01A0C7"
       id="path107" />
    <path
       fill-rule="evenodd"
       clip-rule="evenodd"
       d="M26.7757 104.764C28.7747 103.337 28.4904 103.623 29.9164 102.48C31.3446 101.339 33.0593 100.482 33.6301 98.7687C34.201 97.0551 34.201 95.0573 35.6292 94.7732C37.0574 94.4868 37.6282 93.3459 37.9147 92.205C38.2012 91.064 38.4855 91.9186 39.0586 90.4913C39.6294 89.0641 39.3451 90.205 41.0576 88.7777C42.7723 87.3504 44.2005 83.3549 44.2005 83.3549L46.1996 83.0686C46.1996 83.0686 47.9143 85.0664 47.3412 85.9232C46.7704 86.78 47.3412 89.3482 46.1996 89.3482C45.0579 89.3482 45.0579 91.346 45.0579 91.346C45.0579 91.346 42.7723 93.0596 42.2015 94.2005C41.6307 95.3415 41.0598 96.1983 40.2025 96.4846C39.3451 96.7709 39.3451 97.3414 39.3451 98.7687C39.3451 100.196 39.0586 101.053 40.2025 102.194C41.3463 103.335 40.489 104.762 42.2015 105.619C43.9162 106.476 43.6297 107.332 43.9162 107.903C44.0044 108.077 44.0396 108.145 44.0198 108.172C43.9735 108.231 43.6539 108.077 43.0611 108.476C42.2037 109.046 40.7755 108.476 39.9182 109.616C39.0608 110.757 39.3473 110.757 37.9191 111.614C36.4909 112.471 35.6336 113.041 34.4897 113.041C33.348 113.041 31.0625 114.755 30.2051 113.041C29.3478 111.328 29.0634 111.044 27.9196 110.473C26.7779 109.903 26.4914 108.76 25.3497 108.476C24.2036 108.189 24.7767 106.191 26.7757 104.764Z"
       fill="#01A0C7"
       id="path109" />
  </g>
  <path
     d="m 99.611479,75.982576 h 16.414001 v -16.878 h 11.368 v 43.732004 h -11.368 V 84.798576 H 99.611479 v 18.038004 h -11.368 V 59.104576 h 11.368 z m 47.502001,5.858 -15.95,-22.736 h 13.572 l 8.12,11.948 8.062,-11.948 h 13.572 l -16.008,22.736 v 20.996004 h -11.368 z m 38.161,-0.87 c 0,1.74 0.329,3.3447 0.986,4.814 0.658,1.4693 1.547,2.7453 2.668,3.828 1.122,1.0827 2.417,1.9333 3.886,2.552 1.508,0.58 3.094,0.87 4.756,0.87 1.663,0 3.229,-0.29 4.698,-0.87 1.508,-0.6187 2.823,-1.4693 3.944,-2.552 1.16,-1.0827 2.069,-2.3587 2.726,-3.828 0.658,-1.4693 0.986,-3.074 0.986,-4.814 0,-1.74 -0.328,-3.3447 -0.986,-4.814 -0.657,-1.4693 -1.566,-2.7453 -2.726,-3.828 -1.121,-1.0827 -2.436,-1.914 -3.944,-2.494 -1.469,-0.6187 -3.035,-0.928 -4.698,-0.928 -1.662,0 -3.248,0.3093 -4.756,0.928 -1.469,0.58 -2.764,1.4113 -3.886,2.494 -1.121,1.0827 -2.01,2.3587 -2.668,3.828 -0.657,1.4693 -0.986,3.074 -0.986,4.814 z m -11.89,0 c 0,-3.248 0.6,-6.264 1.798,-9.048 1.199,-2.8227 2.862,-5.278 4.988,-7.366 2.127,-2.088 4.66,-3.712 7.598,-4.872 2.978,-1.1987 6.245,-1.798 9.802,-1.798 3.519,0 6.767,0.5993 9.744,1.798 2.978,1.16 5.53,2.784 7.656,4.872 2.166,2.088 3.848,4.5433 5.046,7.366 1.199,2.784 1.798,5.8 1.798,9.048 0,3.248 -0.599,6.2833 -1.798,9.106 -1.198,2.784 -2.88,5.219999 -5.046,7.307999 -2.126,2.088 -4.678,3.731005 -7.656,4.930005 -2.977,1.16 -6.225,1.74 -9.744,1.74 -3.557,0 -6.824,-0.58 -9.802,-1.74 -2.938,-1.199 -5.471,-2.842005 -7.598,-4.930005 -2.126,-2.088 -3.789,-4.523999 -4.988,-7.307999 -1.198,-2.8227 -1.798,-5.858 -1.798,-9.106 z m 76.897,-2.61 h 22.562 c 0,2.32 -0.097,4.4273 -0.29,6.322 -0.193,1.8947 -0.58,3.654 -1.16,5.278 -0.812,2.2813 -1.914,4.310999 -3.306,6.089999 -1.392,1.74 -3.035,3.209 -4.93,4.408005 -1.856,1.16 -3.905,2.049 -6.148,2.668 -2.243,0.619 -4.601,0.928 -7.076,0.928 -3.403,0 -6.515,-0.561 -9.338,-1.682 -2.784,-1.121 -5.181,-2.687005 -7.192,-4.698005 -2.011,-2.049 -3.577,-4.485299 -4.698,-7.307999 -1.121,-2.8613 -1.682,-6.0127 -1.682,-9.454 0,-3.4027 0.541,-6.5153 1.624,-9.338 1.121,-2.8613 2.687,-5.2973 4.698,-7.308 2.049,-2.0107 4.505,-3.5767 7.366,-4.698 2.861,-1.1213 6.051,-1.682 9.57,-1.682 4.563,0 8.565,0.986 12.006,2.958 3.441,1.972 6.167,5.0267 8.178,9.164 l -10.788,4.466 c -1.005,-2.3973 -2.32,-4.118 -3.944,-5.162 -1.585,-1.044 -3.403,-1.566 -5.452,-1.566 -1.701,0 -3.248,0.3287 -4.64,0.986 -1.392,0.6187 -2.591,1.5273 -3.596,2.726 -0.967,1.16 -1.74,2.5713 -2.32,4.234 -0.541,1.6627 -0.812,3.5187 -0.812,5.568 0,1.856 0.232,3.5767 0.696,5.162 0.503,1.5853 1.237,2.958 2.204,4.118 0.967,1.16 2.165,2.0687 3.596,2.726 1.431,0.619 3.093,0.927999 4.988,0.927999 1.121,0 2.204,-0.115999 3.248,-0.347999 1.044,-0.2707 1.972,-0.6767 2.784,-1.218 0.851,-0.58 1.547,-1.3147 2.088,-2.204 0.541,-0.8893 0.909,-1.972 1.102,-3.248 h -9.338 z m 39.665,2.61 c 0,1.74 0.329,3.3447 0.986,4.814 0.657,1.4693 1.547,2.7453 2.668,3.828 1.121,1.0827 2.417,1.9333 3.886,2.552 1.508,0.58 3.093,0.87 4.756,0.87 1.663,0 3.229,-0.29 4.698,-0.87 1.508,-0.6187 2.823,-1.4693 3.944,-2.552 1.16,-1.0827 2.069,-2.3587 2.726,-3.828 0.657,-1.4693 0.986,-3.074 0.986,-4.814 0,-1.74 -0.329,-3.3447 -0.986,-4.814 -0.657,-1.4693 -1.566,-2.7453 -2.726,-3.828 -1.121,-1.0827 -2.436,-1.914 -3.944,-2.494 -1.469,-0.6187 -3.035,-0.928 -4.698,-0.928 -1.663,0 -3.248,0.3093 -4.756,0.928 -1.469,0.58 -2.765,1.4113 -3.886,2.494 -1.121,1.0827 -2.011,2.3587 -2.668,3.828 -0.657,1.4693 -0.986,3.074 -0.986,4.814 z m -11.89,0 c 0,-3.248 0.599,-6.264 1.798,-9.048 1.199,-2.8227 2.861,-5.278 4.988,-7.366 2.127,-2.088 4.659,-3.712 7.598,-4.872 2.977,-1.1987 6.245,-1.798 9.802,-1.798 3.519,0 6.767,0.5993 9.744,1.798 2.977,1.16 5.529,2.784 7.656,4.872 2.165,2.088 3.847,4.5433 5.046,7.366 1.199,2.784 1.798,5.8 1.798,9.048 0,3.248 -0.599,6.2833 -1.798,9.106 -1.199,2.784 -2.881,5.219999 -5.046,7.307999 -2.127,2.088 -4.679,3.731005 -7.656,4.930005 -2.977,1.16 -6.225,1.74 -9.744,1.74 -3.557,0 -6.825,-0.58 -9.802,-1.74 -2.939,-1.199 -5.471,-2.842005 -7.598,-4.930005 -2.127,-2.088 -3.789,-4.523999 -4.988,-7.307999 -1.199,-2.8227 -1.798,-5.858 -1.798,-9.106 z"
     fill="#01a0c7"
     id="path115" />
  <defs
     id="defs120">
    <clipPath
       id="clip0">
      <path
         d="M0 0H76.76V114H0V0Z"
         fill="white"
         id="path117" />
    </clipPath>
  </defs>
  <text
     xml:space="preserve"
     style="font-style:normal;font-variant:normal;font-weight:600;font-stretch:normal;font-size:48px;line-height:1.25;font-family:'Hiragino Kaku Gothic Pro';-inkscape-font-specification:'Hiragino Kaku Gothic Pro, Semi-Bold';font-variant-ligatures:normal;font-variant-caps:normal;font-variant-numeric:normal;font-variant-east-asian:normal;fill:#000000;fill-opacity:1;stroke:none"
     x="83.719841"
     y="-17.719845"
     id="text130"><tspan
       sodipodi:role="line"
       id="tspan128"
       x="83.719841"
       y="-17.719845"></tspan><tspan
       sodipodi:role="line"
       x="83.719841"
       y="42.280155"
       id="tspan132">Statistics</tspan></text>
</svg>
